<?xml version="1.0" encoding="UTF-8" standalone="no"?>
<!-- Created with Inkscape (http://www.inkscape.org/) -->

<svg
   xmlns:dc="http://purl.org/dc/elements/1.1/"
   xmlns:cc="http://creativecommons.org/ns#"
   xmlns:rdf="http://www.w3.org/1999/02/22-rdf-syntax-ns#"
   xmlns:svg="http://www.w3.org/2000/svg"
   xmlns="http://www.w3.org/2000/svg"
   xmlns:sodipodi="http://sodipodi.sourceforge.net/DTD/sodipodi-0.dtd"
   xmlns:inkscape="http://www.inkscape.org/namespaces/inkscape"
   width="366.62875"
   height="61.599125"
   id="svg2"
   version="1.1"
   inkscape:version="0.48.4 r9939"
   sodipodi:docname="New document 1">
  <title
     id="title3044">DevExpress Logo</title>
  <defs
     id="defs4" />
  <sodipodi:namedview
     id="base"
     pagecolor="#ffffff"
     bordercolor="#666666"
     borderopacity="1.0"
     inkscape:pageopacity="0.0"
     inkscape:pageshadow="2"
     inkscape:zoom="0.35"
     inkscape:cx="183.31437"
     inkscape:cy="30.799567"
     inkscape:document-units="px"
     inkscape:current-layer="layer1"
     showgrid="false"
     fit-margin-top="0"
     fit-margin-left="0"
     fit-margin-right="0"
     fit-margin-bottom="0"
     inkscape:window-width="691"
     inkscape:window-height="728"
     inkscape:window-x="2050"
     inkscape:window-y="130"
     inkscape:window-maximized="0" />
  <metadata
     id="metadata7">
    <rdf:RDF>
      <cc:Work
         rdf:about="">
        <dc:format>image/svg+xml</dc:format>
        <dc:type
           rdf:resource="http://purl.org/dc/dcmitype/StillImage" />
        <dc:title>DevExpress Logo</dc:title>
      </cc:Work>
    </rdf:RDF>
  </metadata>
  <g
     inkscape:label="Layer 1"
     inkscape:groupmode="layer"
     id="layer1"
     transform="translate(-191.68563,-501.56263)">
    <g
       transform="matrix(1.25,0,0,-1.25,191.68563,563.16175)"
       inkscape:label="ink_ext_XXXXXX"
       id="g2993">
      <g
         transform="scale(0.1,0.1)"
         id="g2995">
        <path
           id="path2997"
           style="fill:#ffffff;fill-opacity:1;fill-rule:nonzero;stroke:none"
           d="m 0,50.1055 469.77,0 0,393.156 -469.77,0 0,-393.156 z"
           inkscape:connector-curvature="0" />
        <path
           id="path2999"
           style="fill:#393536;fill-opacity:1;fill-rule:nonzero;stroke:none"
           d="m 702.113,143.047 c -8.566,0 -17.992,0 -24.41,1.289 l 0,230.832 c 6.848,1.254 16.695,2.547 29.965,2.547 58.672,0 95.07,-36.824 95.07,-111.348 0,-86.504 -40.254,-123.75 -100.625,-123.32 z m -2.14,284.359 c -32.118,0 -62.09,-2.582 -85.227,-6.867 l 0,-323.7226 C 631.449,94.6484 655.859,92.5 686.27,92.5 c 57.367,0 103.203,13.301 133.179,40.254 25.258,22.726 49.668,63.809 49.668,134.504 0,59.523 -18.41,100.203 -49.668,125.871 -27.402,22.691 -64.676,34.277 -119.476,34.277"
           inkscape:connector-curvature="0" />
        <path
           id="path3001"
           style="fill:#393536;fill-opacity:1;fill-rule:nonzero;stroke:none"
           d="m 961.363,239.844 c 1.711,23.547 14.567,55.234 44.967,55.234 31.26,0 41.12,-30.398 40.69,-55.234 l -85.657,0 z m 48.817,99.332 c -69.785,0 -109.196,-59.11 -109.196,-127.613 0,-74.063 41.969,-120.3325 115.636,-120.3325 29.55,0 57.37,5.1679 77.08,13.6795 l -9,43.711 c -16.27,-5.574 -34.68,-9.859 -58.23,-9.859 -34.263,0 -63.396,16.265 -65.107,56.961 l 142.597,0 c 1.3,6.836 1.73,15.84 1.73,25.246 0,77.105 -37.69,118.207 -95.51,118.207"
           inkscape:connector-curvature="0" />
        <path
           id="path3003"
           style="fill:#393536;fill-opacity:1;fill-rule:nonzero;stroke:none"
           d="M 1282.67,334.047 1252.71,218.43 c -5.16,-21.008 -9.44,-40.278 -13.3,-60.801 l -1.26,0 c -3.85,20.523 -8.15,40.223 -13.29,60.801 l -31.26,115.617 -68.09,0 80.09,-238.5392 61.23,0 81.37,238.5392 -65.53,0"
           inkscape:connector-curvature="0" />
        <path
           id="path3005"
           style="fill:#393536;fill-opacity:1;fill-rule:nonzero;stroke:none"
           d="M 32.4023,117.371 C 20.3828,102.434 11.4453,89.1992 4.63672,76.7969 2.95313,73.7891 0,64.8242 0,58.8398 L 0,50.1055 C 0,35.2344 12.1758,23.0273 27.0898,23.0273 l 415.6132,0 c 14.899,0 27.067,12.2071 27.067,27.0782 l 0,319.7815 C 242.012,329.73 103.98,206.398 32.4023,117.371"
           inkscape:connector-curvature="0" />
        <path
           id="path3007"
           style="fill:#f47216;fill-opacity:1;fill-rule:nonzero;stroke:none"
           d="m 1448.08,240.273 107.54,0 0,51.797 -107.54,0 0,79.649 113.96,0 0,53.105 -177.32,0 0,-329.3162 184.16,0 0,53.1132 -120.8,0 0,91.652"
           inkscape:connector-curvature="0" />
        <path
           id="path3009"
           style="fill:#f47216;fill-opacity:1;fill-rule:nonzero;stroke:none"
           d="m 1808.38,334.047 -67.25,0 -21.43,-42.817 c -6,-12.429 -11.53,-25.285 -17.52,-38.105 l -0.88,0 c -6.01,11.953 -11.53,24.414 -18.4,37.676 l -22.68,43.246 -70.22,0 70.64,-117.785 -72.39,-120.7542 67.65,0 22.29,46.2502 c 5.98,12.441 11.99,24.875 17.56,37.683 l 0.88,0 c 6,-12.808 11.54,-25.242 17.95,-37.683 l 23.54,-46.2502 71.12,0 -71.95,123.3472 71.09,115.192"
           inkscape:connector-curvature="0" />
        <path
           id="path3011"
           style="fill:#f47216;fill-opacity:1;fill-rule:nonzero;stroke:none"
           d="m 1946.83,140.508 c -21.42,0 -42.41,16.66 -42.41,51.355 l 0,44.555 c 0,28.66 19.28,51.812 43.7,51.812 31.24,0 47.51,-30.847 47.51,-73.257 0,-42.805 -16.7,-74.465 -48.8,-74.465 z m 22.26,198.668 c -30.85,0 -55.25,-13.285 -70.66,-37.672 l -0.88,0 -2.99,32.543 -55.25,0 c 0.87,-21.844 1.74,-47.094 1.74,-77.961 l 0,-256.086 63.37,0 0,118.633 0.87,0 c 10.26,-15.813 30.41,-27.8322 56.49,-27.8322 48.4,0 98.07,38.5352 98.07,126.3472 0,73.211 -38.52,122.028 -90.76,122.028"
           inkscape:connector-curvature="0" />
        <path
           id="path3013"
           style="fill:#f47216;fill-opacity:1;fill-rule:nonzero;stroke:none"
           d="m 2161.52,292.488 -1.75,0 -2.54,41.559 -54.4,0 c 0.86,-21.391 1.71,-44.977 1.71,-74.516 l 0,-164.0232 63.4,0 0,123.3472 c 0,40.676 21.8,59.946 50.5,59.946 6.47,0 11.6,-0.422 16.31,-1.262 l 0,60.367 c -4.29,0.86 -8.18,1.27 -14.15,1.27 -22.27,0 -47.94,-15.821 -59.08,-46.688"
           inkscape:connector-curvature="0" />
        <path
           id="path3015"
           style="fill:#f47216;fill-opacity:1;fill-rule:nonzero;stroke:none"
           d="m 2317.45,239.844 c 1.75,23.547 14.58,55.234 44.98,55.234 31.26,0 41.12,-30.398 40.7,-55.234 l -85.68,0 z m 48.83,99.332 c -69.8,0 -109.19,-59.11 -109.19,-127.613 0,-74.063 41.93,-120.3325 115.62,-120.3325 29.54,0 57.38,5.1679 77.1,13.6795 l -9,43.711 c -16.27,-5.574 -34.69,-9.859 -58.23,-9.859 -34.27,0 -63.38,16.265 -65.13,56.961 l 142.63,0 c 1.26,6.836 1.72,15.84 1.72,25.246 0,77.105 -37.73,118.207 -95.52,118.207"
           inkscape:connector-curvature="0" />
        <path
           id="path3017"
           style="fill:#f47216;fill-opacity:1;fill-rule:nonzero;stroke:none"
           d="m 2593.38,239.387 c -27.41,11.582 -36.39,18.445 -36.39,31.687 0,12.879 10.27,22.703 29.5,22.703 18,0 34.73,-6.824 44.99,-12.398 l 12.01,44.512 c -13.71,7.293 -34.67,13.285 -59.09,13.285 -53.12,0 -87.36,-32.528 -87.36,-75.348 0,-26.152 16.23,-51.394 60.8,-69.375 26.12,-11.133 34.25,-18.84 34.25,-33.398 0,-14.602 -10.66,-24.012 -32.99,-24.012 -19.66,0 -43.25,8.582 -55.65,15.879 l -11.99,-45.832 c 15.82,-9.4611 41.14,-15.8595 67.22,-15.8595 59.56,0 93.79,29.9995 93.79,75.4025 0,32.93 -18.84,56.094 -59.09,72.754"
           inkscape:connector-curvature="0" />
        <path
           id="path3019"
           style="fill:#f47216;fill-opacity:1;fill-rule:nonzero;stroke:none"
           d="m 2783.2,239.387 c -27.41,11.582 -36.36,18.445 -36.36,31.687 0,12.879 10.25,22.703 29.52,22.703 17.96,0 34.7,-6.824 44.95,-12.398 l 12.02,44.512 c -13.71,7.293 -34.7,13.285 -59.08,13.285 -53.15,0 -87.39,-32.528 -87.39,-75.348 0,-26.152 16.24,-51.394 60.81,-69.375 26.1,-11.133 34.24,-18.84 34.24,-33.398 0,-14.602 -10.67,-24.012 -32.98,-24.012 -19.67,0 -43.26,8.582 -55.66,15.879 l -11.98,-45.832 c 15.81,-9.4611 41.14,-15.8595 67.23,-15.8595 59.53,0 93.77,29.9995 93.77,75.4025 0,32.93 -18.81,56.094 -59.09,72.754"
           inkscape:connector-curvature="0" />
        <path
           id="path3021"
           style="fill:#f47216;fill-opacity:1;fill-rule:nonzero;stroke:none"
           d="m 442.703,492.793 -415.6132,0 C 12.1758,492.793 0,480.609 0,465.668 L 0,216.531 c 82.2578,86.504 228.672,181.008 451.914,206.77 5.922,0.664 17.856,3.418 17.856,19.961 l 0,22.406 c 0,14.941 -12.168,27.125 -27.067,27.125"
           inkscape:connector-curvature="0" />
        <path
           id="path3023"
           style="fill:#f47216;fill-opacity:1;fill-rule:nonzero;stroke:none"
           d="m 2897.25,352.426 -6.04,0 0,12.617 5,0 c 5.61,0 8.41,-2.07 8.41,-6.215 0,-1.93 -0.66,-3.476 -1.98,-4.648 -1.33,-1.168 -3.13,-1.754 -5.39,-1.754 z m 6.02,-4.391 0,0.188 c 7,1.75 10.51,5.605 10.51,11.586 0,3.836 -1.43,6.832 -4.3,8.992 -2.87,2.168 -7.04,3.25 -12.52,3.25 l -14.25,0 0,-43.633 8.5,0 0,17.516 3.74,0 c 2.69,0 4.78,-2.164 6.31,-6.493 l 3.93,-11.023 10.13,0 -5.23,12.422 c -1.71,4.082 -4,6.48 -6.82,7.195"
           inkscape:connector-curvature="0" />
        <path
           id="path3025"
           style="fill:#f47216;fill-opacity:1;fill-rule:nonzero;stroke:none"
           d="m 2918.66,328.586 c -5.8,-5.719 -12.85,-8.582 -21.14,-8.582 -8.38,0 -15.46,2.828 -21.25,8.48 -5.79,5.657 -8.69,12.75 -8.69,21.282 0,8.379 2.84,15.433 8.52,21.168 5.69,5.726 12.83,8.593 21.42,8.593 8.45,0 15.52,-2.843 21.26,-8.531 5.73,-5.68 8.59,-12.758 8.59,-21.23 0,-8.411 -2.89,-15.469 -8.71,-21.18 z m 4.2,46.082 c -6.77,6.543 -15.15,9.809 -25.15,9.809 -10.12,0 -18.62,-3.372 -25.48,-10.118 -6.87,-6.738 -10.31,-14.968 -10.31,-24.687 0,-10 3.39,-18.242 10.17,-24.734 6.77,-6.497 15.21,-9.743 25.33,-9.743 9.94,0 18.36,3.352 25.26,10.043 6.9,6.696 10.35,14.934 10.35,24.719 0,9.93 -3.39,18.172 -10.17,24.711"
           inkscape:connector-curvature="0" />
      </g>
    </g>
  </g>
</svg>
